<svg xmlns="http://www.w3.org/2000/svg" xmlns:xlink="http://www.w3.org/1999/xlink" width="500" zoomAndPan="magnify" viewBox="0 0 375 374.999991" height="500" preserveAspectRatio="xMidYMid meet" version="1.0"><defs><clipPath id="21b0c0a325"><path d="M 0.246094 106.449219 L 192 106.449219 L 192 374.996094 L 0.246094 374.996094 Z M 0.246094 106.449219 " clip-rule="nonzero"/></clipPath><clipPath id="e605425d31"><path d="M 200.699219 120.472656 L 374.757812 120.472656 L 374.757812 372 L 200.699219 372 Z M 200.699219 120.472656 " clip-rule="nonzero"/></clipPath><clipPath id="953016f4da"><path d="M 0.246094 106.449219 L 192 106.449219 L 192 374.996094 L 0.246094 374.996094 Z M 0.246094 106.449219 " clip-rule="nonzero"/></clipPath><clipPath id="4f4da8e269"><path d="M 200.699219 120.472656 L 374.757812 120.472656 L 374.757812 372 L 200.699219 372 Z M 200.699219 120.472656 " clip-rule="nonzero"/></clipPath><clipPath id="a0e1500333"><path d="M 187 3.75 L 201 3.75 L 201 102 L 187 102 Z M 187 3.75 " clip-rule="nonzero"/></clipPath></defs><g clip-path="url(#21b0c0a325)"><path fill="#8bc34a" d="M 45.171875 198.410156 C 101.867188 222.886719 147.355469 297.515625 175.917969 364.050781 C 179.121094 354.96875 181.800781 346.367188 183.988281 338.230469 C 222.824219 193.632812 107.015625 193.773438 47.355469 143.09375 C 36.449219 133.820312 26.050781 120.835938 20.027344 106.730469 C 7.375 131.953125 0.246094 160.425781 0.246094 190.566406 C 0.246094 282.875 67.042969 359.582031 154.9375 374.996094 C 138.730469 319.066406 107.195312 250.039062 45.171875 198.410156 " fill-opacity="1" fill-rule="nonzero"/></g><g clip-path="url(#e605425d31)"><path fill="#8bc34a" d="M 374.761719 190.566406 C 374.761719 165.917969 369.988281 142.386719 361.335938 120.835938 C 355.992188 134.730469 344.40625 147.328125 333.753906 156.378906 C 278.855469 203.023438 172.289062 202.890625 208.027344 335.949219 C 210.042969 343.433594 212.507812 351.351562 215.453125 359.707031 C 241.734375 298.480469 283.59375 229.808594 335.765625 207.285156 C 277.730469 255.59375 249.082031 319.988281 234.398438 371.902344 C 234.402344 371.898438 234.402344 371.898438 234.40625 371.898438 C 315.125 351.078125 374.761719 277.785156 374.761719 190.566406 " fill-opacity="1" fill-rule="nonzero"/></g><g clip-path="url(#953016f4da)"><path fill="#8bc34a" d="M 45.171875 198.410156 C 101.867188 222.886719 147.355469 297.515625 175.917969 364.050781 C 179.121094 354.96875 181.800781 346.367188 183.988281 338.230469 C 222.824219 193.632812 107.015625 193.773438 47.355469 143.09375 C 36.449219 133.820312 26.050781 120.835938 20.027344 106.730469 C 7.375 131.953125 0.246094 160.425781 0.246094 190.566406 C 0.246094 282.875 67.042969 359.582031 154.9375 374.996094 C 138.730469 319.066406 107.195312 250.039062 45.171875 198.410156 " fill-opacity="1" fill-rule="nonzero"/></g><g clip-path="url(#4f4da8e269)"><path fill="#8bc34a" d="M 374.761719 190.566406 C 374.761719 165.917969 369.988281 142.386719 361.335938 120.835938 C 355.992188 134.730469 344.40625 147.328125 333.753906 156.378906 C 278.855469 203.023438 172.289062 202.890625 208.027344 335.949219 C 210.042969 343.433594 212.507812 351.351562 215.453125 359.707031 C 241.734375 298.480469 283.59375 229.808594 335.765625 207.285156 C 277.730469 255.59375 249.082031 319.988281 234.398438 371.902344 C 234.402344 371.898438 234.402344 371.898438 234.40625 371.898438 C 315.125 351.078125 374.761719 277.785156 374.761719 190.566406 " fill-opacity="1" fill-rule="nonzero"/></g><path fill="#ffcf00" d="M 186.453125 100.265625 C 182.222656 63.613281 178.355469 39.941406 178.355469 39.941406 C 178.355469 39.941406 177.46875 63.914062 177.828125 100.804688 C 180.667969 100.496094 183.542969 100.304688 186.453125 100.265625 " fill-opacity="1" fill-rule="nonzero"/><g clip-path="url(#a0e1500333)"><path fill="#ffcf00" d="M 190.710938 100.296875 C 193.9375 100.402344 197.117188 100.679688 200.242188 101.113281 C 201.671875 43.171875 200.40625 3.75 200.40625 3.75 C 200.40625 3.75 193.84375 42.65625 187.46875 100.273438 C 188.546875 100.269531 189.625 100.261719 190.710938 100.296875 " fill-opacity="1" fill-rule="nonzero"/></g><path fill="#ffcf00" d="M 209.910156 103 C 215.3125 66.507812 217.703125 42.640625 217.703125 42.640625 C 217.703125 42.640625 210.636719 65.570312 201.441406 101.304688 C 204.3125 101.738281 207.136719 102.300781 209.910156 103 " fill-opacity="1" fill-rule="nonzero"/><path fill="#ffcf00" d="M 223.011719 107.394531 C 239.386719 51.792969 248.367188 13.390625 248.367188 13.390625 C 248.367188 13.390625 231.964844 49.265625 210.894531 103.261719 C 215.0625 104.359375 219.109375 105.742188 223.011719 107.394531 " fill-opacity="1" fill-rule="nonzero"/><path fill="#ffcf00" d="M 231.859375 111.722656 C 246.523438 77.871094 255.011719 55.433594 255.011719 55.433594 C 255.011719 55.433594 242.253906 75.75 224.128906 107.875 C 226.773438 109.035156 229.355469 110.324219 231.859375 111.722656 " fill-opacity="1" fill-rule="nonzero"/><path fill="#ffcf00" d="M 243.371094 119.367188 C 273.585938 69.894531 292.203125 35.117188 292.203125 35.117188 C 292.203125 35.117188 267.074219 65.519531 232.75 112.21875 C 236.46875 114.351562 240.015625 116.742188 243.371094 119.367188 " fill-opacity="1" fill-rule="nonzero"/><path fill="#ffcf00" d="M 104.226562 64.847656 C 104.226562 64.847656 115.445312 86.058594 134.207031 117.835938 C 136.527344 116.132812 138.925781 114.535156 141.40625 113.054688 C 119.414062 83.421875 104.226562 64.847656 104.226562 64.847656 " fill-opacity="1" fill-rule="nonzero"/><path fill="#ffcf00" d="M 176.621094 100.933594 C 163.003906 44.601562 151.578125 6.851562 151.578125 6.851562 C 151.578125 6.851562 155.3125 46.113281 164.0625 103.394531 C 168.144531 102.289062 172.335938 101.460938 176.621094 100.933594 " fill-opacity="1" fill-rule="nonzero"/><path fill="#ffcf00" d="M 153.765625 106.886719 C 126.03125 55.992188 105.226562 22.484375 105.226562 22.484375 C 105.226562 22.484375 118.996094 59.449219 142.277344 112.53125 C 145.953125 110.390625 149.792969 108.503906 153.765625 106.886719 " fill-opacity="1" fill-rule="nonzero"/><path fill="#ffcf00" d="M 163.078125 103.671875 C 149.507812 69.375 139.652344 47.511719 139.652344 47.511719 C 139.652344 47.511719 144.992188 70.894531 154.890625 106.421875 C 157.558594 105.378906 160.292969 104.464844 163.078125 103.671875 " fill-opacity="1" fill-rule="nonzero"/><path fill="#ffcf00" d="M 259.949219 136.1875 C 301.9375 96.222656 328.921875 67.445312 328.921875 67.445312 C 328.921875 67.445312 296.773438 90.316406 251.519531 126.546875 C 254.550781 129.558594 257.367188 132.777344 259.949219 136.1875 " fill-opacity="1" fill-rule="nonzero"/><path fill="#ffcf00" d="M 272.082031 157.84375 C 273.121094 160.515625 274.039062 163.246094 274.828125 166.03125 C 309.128906 152.464844 330.984375 142.605469 330.984375 142.605469 C 330.984375 142.605469 307.605469 147.949219 272.082031 157.84375 " fill-opacity="1" fill-rule="nonzero"/><path fill="#ffcf00" d="M 244.335938 120.105469 C 246.585938 121.910156 248.746094 123.820312 250.808594 125.820312 C 273.734375 96.917969 287.738281 77.445312 287.738281 77.445312 C 287.738281 77.445312 270.160156 93.765625 244.335938 120.105469 " fill-opacity="1" fill-rule="nonzero"/><path fill="#ffcf00" d="M 313.652344 107.179688 C 313.652344 107.179688 292.4375 118.398438 260.664062 137.160156 C 262.371094 139.480469 263.964844 141.878906 265.449219 144.355469 C 295.078125 122.367188 313.652344 107.179688 313.652344 107.179688 " fill-opacity="1" fill-rule="nonzero"/><path fill="#ffcf00" d="M 133.234375 118.550781 C 93.265625 76.5625 64.492188 49.582031 64.492188 49.582031 C 64.492188 49.582031 87.367188 81.730469 123.59375 126.980469 C 126.605469 123.949219 129.824219 121.132812 133.234375 118.550781 " fill-opacity="1" fill-rule="nonzero"/><path fill="#ffcf00" d="M 271.613281 156.71875 C 322.507812 128.984375 356.015625 108.179688 356.015625 108.179688 C 356.015625 108.179688 319.046875 121.945312 265.96875 145.226562 C 268.113281 148.90625 270 152.742188 271.613281 156.71875 " fill-opacity="1" fill-rule="nonzero"/><path fill="#ffcf00" d="M 117.152344 134.167969 C 118.957031 131.917969 120.863281 129.757812 122.871094 127.691406 C 93.964844 104.765625 74.492188 90.761719 74.492188 90.761719 C 74.492188 90.761719 90.808594 108.339844 117.152344 134.167969 " fill-opacity="1" fill-rule="nonzero"/><path fill="#ffcf00" d="M 104.921875 154.375 C 106.085938 151.726562 107.371094 149.148438 108.769531 146.640625 C 74.917969 131.980469 52.480469 123.488281 52.480469 123.488281 C 52.480469 123.488281 72.796875 136.246094 104.921875 154.375 " fill-opacity="1" fill-rule="nonzero"/><path fill="#ffcf00" d="M 116.410156 135.128906 C 66.941406 104.914062 32.164062 86.300781 32.164062 86.300781 C 32.164062 86.300781 62.566406 111.425781 109.265625 145.75 C 111.398438 142.035156 113.789062 138.488281 116.410156 135.128906 " fill-opacity="1" fill-rule="nonzero"/></svg>